<svg viewBox="0 0.2 2500 572.5" xmlns="http://www.w3.org/2000/svg" width="2500" height="572"><g clip-rule="evenodd" fill-rule="evenodd"><path d="M2069.7 170.4h71v-71h-71zm-377.4 118.3c13.6-36 48.3-61.6 89-61.6s75.5 25.6 89 61.6zm89-127.7c-89 0-161.2 72.2-161.2 161.2s72.2 161.2 161.2 161.2c61.1 0 114.2-34 141.5-84l-59.5-28.9c-16.6 28.1-47.1 46.9-82 46.9-44.1 0-81.2-30-92-70.8h184v.1h67.4c1.2-8 1.8-16.2 1.8-24.5 0-89-72.1-161.2-161.2-161.2zm180 313.8h71v-71h-71zm108.4 0h71V201.6h-71zm269.1-57.4c-52.6 0-95.2-42.6-95.2-95.2s42.6-95.2 95.2-95.2 95.2 42.6 95.2 95.2-42.6 95.2-95.2 95.2zm0-256.4c-89 0-161.2 72.2-161.2 161.2s72.2 161.2 161.2 161.2S2500 411.2 2500 322.2 2427.8 161 2338.8 161zM854.4 262.8v73.4h99.3c-5.2 21-15.4 39.8-30.1 54.8-22.2 22.7-52.9 35.1-86.5 35.1-69.8 0-126.6-56.8-126.6-126.7 0-69.8 56.8-126.7 126.6-126.7 37.4 0 71.8 16 95.6 43.6l56.8-46.5c-37.7-44.2-93.6-70.6-152.4-70.6-110.3 0-200 89.8-200 200.1s89.7 200.1 200 200.1c53.6 0 102.9-19.3 139-56.2 30.3-31 50.4-74.2 54.2-117.4 1.9-21.1 2.1-42.1.9-63.2zM1216 417.4c-52.5 0-95.2-42.6-95.2-95.2s42.6-95.2 95.2-95.2 95.2 42.6 95.2 95.2-42.6 95.2-95.2 95.2zm95.2-225c-26.7-19.6-59.6-31.1-95.2-31.1-89 0-161.1 72.2-161.1 161.2s72.2 161.2 161.1 161.2c35.6 0 68.5-11.6 95.2-31.1v22.3h66V170.1h-66zm207.6-93h-66v71h-39.5v62.3h39.5v163c0 16.8 2.1 31 6.3 42.1 4.1 11 10.5 19.6 18 26.3 7.6 6.8 16.5 12.1 27.1 15.2 10.8 3 22.6 4.2 35.2 4.2 13 0 24.6-1.3 34.4-4 9.2-2.5 18-6 26.1-10.4v-50.2c-13 5.6-25.2 7.7-39.1 8.3-14.7.7-23.3-3.5-30.5-10.4-7.6-7.2-11.6-16.6-11.6-32.3V232.7h81.2v-62.3h-81.2v-71z"/><path d="M286.2 443.9c-86.9 0-157.4-70.5-157.4-157.4s70.5-157.4 157.4-157.4V.2C128.1.2 0 128.4 0 286.5s128.1 286.2 286.2 286.2c158 0 286.2-128.2 286.2-286.2H443.6c0 87-70.5 157.4-157.4 157.4z" fill="#2354e6"/><path d="M286.2 286.5h157.4V129.1H286.2z" fill="#17e6a1"/></g></svg>